<?xml version="1.0" encoding="UTF-8" standalone="no"?>
<!DOCTYPE svg PUBLIC "-//W3C//DTD SVG 1.1//EN"
 "http://www.w3.org/Graphics/SVG/1.1/DTD/svg11.dtd">
<!-- Generated by graphviz version 2.38.0 (20140413.2041)
 -->
<!-- Title: Prio Pages: 1 -->
<svg width="1324pt" height="852pt"
 viewBox="0.00 0.00 1324.00 852.00" xmlns="http://www.w3.org/2000/svg" xmlns:xlink="http://www.w3.org/1999/xlink">
<g id="graph0" class="graph" transform="scale(1 1) rotate(0) translate(4 848)">
<title>Prio</title>
<polygon fill="white" stroke="none" points="-4,4 -4,-848 1320,-848 1320,4 -4,4"/>
<g id="clust1" class="cluster"><title>cluster_facilitator</title>
<polygon fill="none" stroke="black" points="8,-284 8,-800 654,-800 654,-284 8,-284"/>
<text text-anchor="middle" x="331" y="-784.8" font-family="Times New Roman,serif" font-size="14.00">Facilitator (id 1)</text>
</g>
<g id="clust4" class="cluster"><title>cluster_pha</title>
<polygon fill="none" stroke="black" points="662,-284 662,-800 1308,-800 1308,-284 662,-284"/>
<text text-anchor="middle" x="985" y="-784.8" font-family="Times New Roman,serif" font-size="14.00">PHA (id 0)</text>
</g>
<g id="clust7" class="cluster"><title>cluster_portal</title>
<polygon fill="none" stroke="black" points="431,-8 431,-276 884,-276 884,-8 431,-8"/>
<text text-anchor="middle" x="657.5" y="-260.8" font-family="Times New Roman,serif" font-size="14.00">Portal</text>
</g>
<!-- ingestor -->
<g id="node1" class="node"><title>ingestor</title>
<ellipse fill="none" stroke="black" cx="773" cy="-826" rx="49.2915" ry="18"/>
<text text-anchor="middle" x="773" y="-822.3" font-family="Times New Roman,serif" font-size="14.00">Ingestor A</text>
</g>
<!-- batch_1 -->
<g id="node5" class="node"><title>batch_1</title>
<polygon fill="#fcdae1" stroke="#ee4266" points="581,-769 405,-769 405,-701 587,-701 587,-763 581,-769"/>
<polyline fill="none" stroke="#ee4266" points="581,-769 581,-763 "/>
<polyline fill="none" stroke="#ee4266" points="587,-763 581,-763 "/>
<text text-anchor="middle" x="496" y="-753.8" font-family="Times New Roman,serif" font-size="14.00">Ingestor A Bucket</text>
<text text-anchor="start" x="413" y="-738.8" font-family="Times New Roman,serif" font-size="14.00">{date}/{batch_id}.batch</text>
<text text-anchor="start" x="413" y="-723.8" font-family="Times New Roman,serif" font-size="14.00">{date}/{batch_id}.batch.avro</text>
<text text-anchor="start" x="413" y="-708.8" font-family="Times New Roman,serif" font-size="14.00">{date}/{batch_id}.batch.sig</text>
</g>
<!-- ingestor&#45;&gt;batch_1 -->
<g id="edge1" class="edge"><title>ingestor&#45;&gt;batch_1</title>
<path fill="none" stroke="black" d="M729.705,-817.314C707.97,-813.021 681.36,-807.102 658,-800 632.841,-792.351 606.082,-782.514 581.714,-772.858"/>
<polygon fill="black" stroke="black" points="582.729,-769.495 572.145,-769.028 580.128,-775.993 582.729,-769.495"/>
</g>
<!-- batch_0 -->
<g id="node13" class="node"><title>batch_0</title>
<polygon fill="#fff6d8" stroke="#ffd23f" points="958,-769 782,-769 782,-701 964,-701 964,-763 958,-769"/>
<polyline fill="none" stroke="#ffd23f" points="958,-769 958,-763 "/>
<polyline fill="none" stroke="#ffd23f" points="964,-763 958,-763 "/>
<text text-anchor="middle" x="873" y="-753.8" font-family="Times New Roman,serif" font-size="14.00">Ingestor A Bucket</text>
<text text-anchor="start" x="790" y="-738.8" font-family="Times New Roman,serif" font-size="14.00">{date}/{batch_id}.batch</text>
<text text-anchor="start" x="790" y="-723.8" font-family="Times New Roman,serif" font-size="14.00">{date}/{batch_id}.batch.avro</text>
<text text-anchor="start" x="790" y="-708.8" font-family="Times New Roman,serif" font-size="14.00">{date}/{batch_id}.batch.sig</text>
</g>
<!-- ingestor&#45;&gt;batch_0 -->
<g id="edge2" class="edge"><title>ingestor&#45;&gt;batch_0</title>
<path fill="none" stroke="black" d="M790.878,-809.089C801.304,-799.81 814.96,-787.655 828.136,-775.929"/>
<polygon fill="black" stroke="black" points="830.667,-778.362 835.81,-769.099 826.013,-773.133 830.667,-778.362"/>
</g>
<!-- MapA_1 -->
<g id="node2" class="node"><title>MapA_1</title>
<ellipse fill="#fcdae1" stroke="#ee4266" stroke-width="3" cx="378" cy="-647" rx="51.9908" ry="18"/>
<text text-anchor="middle" x="378" y="-643.3" font-family="Times New Roman,serif" font-size="14.00">Intake Map</text>
</g>
<!-- batch_1_local -->
<g id="node6" class="node"><title>batch_1_local</title>
<polygon fill="#fcdae1" stroke="#ee4266" points="192,-593 16,-593 16,-525 198,-525 198,-587 192,-593"/>
<polyline fill="none" stroke="#ee4266" points="192,-593 192,-587 "/>
<polyline fill="none" stroke="#ee4266" points="198,-587 192,-587 "/>
<text text-anchor="middle" x="107" y="-577.8" font-family="Times New Roman,serif" font-size="14.00">Internal Bucket (copy)</text>
<text text-anchor="start" x="24" y="-562.8" font-family="Times New Roman,serif" font-size="14.00">{date}/{batch_id}.batch</text>
<text text-anchor="start" x="24" y="-547.8" font-family="Times New Roman,serif" font-size="14.00">{date}/{batch_id}.batch.avro</text>
<text text-anchor="start" x="24" y="-532.8" font-family="Times New Roman,serif" font-size="14.00">{date}/{batch_id}.batch.sig</text>
</g>
<!-- MapA_1&#45;&gt;batch_1_local -->
<g id="edge4" class="edge"><title>MapA_1&#45;&gt;batch_1_local</title>
<path fill="none" stroke="black" d="M340.241,-634.513C307.583,-624.529 258.863,-609.521 207.818,-593.246"/>
<polygon fill="black" stroke="black" points="208.854,-589.902 198.263,-590.193 206.724,-596.57 208.854,-589.902"/>
</g>
<!-- validity_1_local -->
<g id="node7" class="node"><title>validity_1_local</title>
<polygon fill="#fcdae1" stroke="#ee4266" points="416,-593 216,-593 216,-525 422,-525 422,-587 416,-593"/>
<polyline fill="none" stroke="#ee4266" points="416,-593 416,-587 "/>
<polyline fill="none" stroke="#ee4266" points="422,-587 416,-587 "/>
<text text-anchor="middle" x="319" y="-577.8" font-family="Times New Roman,serif" font-size="14.00">Internal Bucket</text>
<text text-anchor="start" x="224" y="-562.8" font-family="Times New Roman,serif" font-size="14.00">{date}/{batch_id}.validity_1</text>
<text text-anchor="start" x="224" y="-547.8" font-family="Times New Roman,serif" font-size="14.00">{date}/{batch_id}.validity_1.avro</text>
<text text-anchor="start" x="224" y="-532.8" font-family="Times New Roman,serif" font-size="14.00">{date}/{batch_id}.validity_1.sig</text>
</g>
<!-- MapA_1&#45;&gt;validity_1_local -->
<g id="edge5" class="edge"><title>MapA_1&#45;&gt;validity_1_local</title>
<path fill="none" stroke="black" d="M366.624,-629.418C361.185,-621.491 354.405,-611.607 347.681,-601.806"/>
<polygon fill="black" stroke="black" points="350.365,-599.531 341.821,-593.265 344.593,-603.491 350.365,-599.531"/>
</g>
<!-- validity_1 -->
<g id="node16" class="node"><title>validity_1</title>
<polygon fill="#fff6d8" stroke="#ffd23f" points="870,-593 670,-593 670,-525 876,-525 876,-587 870,-593"/>
<polyline fill="none" stroke="#ffd23f" points="870,-593 870,-587 "/>
<polyline fill="none" stroke="#ffd23f" points="876,-587 870,-587 "/>
<text text-anchor="middle" x="773" y="-577.8" font-family="Times New Roman,serif" font-size="14.00">Facilitator 1 Bucket (copy)</text>
<text text-anchor="start" x="678" y="-562.8" font-family="Times New Roman,serif" font-size="14.00">{date}/{batch_id}.validity_1</text>
<text text-anchor="start" x="678" y="-547.8" font-family="Times New Roman,serif" font-size="14.00">{date}/{batch_id}.validity_1.avro</text>
<text text-anchor="start" x="678" y="-532.8" font-family="Times New Roman,serif" font-size="14.00">{date}/{batch_id}.validity_1.sig</text>
</g>
<!-- MapA_1&#45;&gt;validity_1 -->
<g id="edge6" class="edge"><title>MapA_1&#45;&gt;validity_1</title>
<path fill="none" stroke="black" d="M424.355,-638.575C480.116,-629.334 576.412,-612.384 658,-593 658.739,-592.824 659.48,-592.647 660.223,-592.468"/>
<polygon fill="black" stroke="black" points="661.12,-595.852 669.99,-590.058 659.442,-589.056 661.12,-595.852"/>
</g>
<!-- MapB_1 -->
<g id="node3" class="node"><title>MapB_1</title>
<ellipse fill="#fcdae1" stroke="#ee4266" stroke-width="3" cx="424" cy="-471" rx="77.9862" ry="18"/>
<text text-anchor="middle" x="424" y="-467.3" font-family="Times New Roman,serif" font-size="14.00">Validate/Sum Map</text>
</g>
<!-- sum_1 -->
<g id="node9" class="node"><title>sum_1</title>
<polygon fill="#fcdae1" stroke="#ee4266" points="586.5,-417 359.5,-417 359.5,-364 592.5,-364 592.5,-411 586.5,-417"/>
<polyline fill="none" stroke="#ee4266" points="586.5,-417 586.5,-411 "/>
<polyline fill="none" stroke="#ee4266" points="592.5,-411 586.5,-411 "/>
<text text-anchor="middle" x="476" y="-401.8" font-family="Times New Roman,serif" font-size="14.00">Internal Bucket</text>
<text text-anchor="start" x="367.5" y="-386.8" font-family="Times New Roman,serif" font-size="14.00">{date}/{batch_id}.sum_1</text>
<text text-anchor="start" x="367.5" y="-371.8" font-family="Times New Roman,serif" font-size="14.00">{date}/{batch_id}.invalid_uuid_1.avro</text>
</g>
<!-- MapB_1&#45;&gt;sum_1 -->
<g id="edge10" class="edge"><title>MapB_1&#45;&gt;sum_1</title>
<path fill="none" stroke="black" d="M435.283,-452.967C440.589,-444.957 447.114,-435.107 453.373,-425.658"/>
<polygon fill="black" stroke="black" points="456.4,-427.426 459.005,-417.156 450.564,-423.56 456.4,-427.426"/>
</g>
<!-- Reducer_1 -->
<g id="node4" class="node"><title>Reducer_1</title>
<ellipse fill="#fcdae1" stroke="#ee4266" stroke-width="3" cx="499" cy="-310" rx="82.5854" ry="18"/>
<text text-anchor="middle" x="499" y="-306.3" font-family="Times New Roman,serif" font-size="14.00">Multi&#45;batch Reduce</text>
</g>
<!-- sum_1_aggr -->
<g id="node20" class="node"><title>sum_1_aggr</title>
<polygon fill="#d5f4e3" stroke="#35c073" points="642.5,-245 439.5,-245 439.5,-177 648.5,-177 648.5,-239 642.5,-245"/>
<polyline fill="none" stroke="#35c073" points="642.5,-245 642.5,-239 "/>
<polyline fill="none" stroke="#35c073" points="648.5,-239 642.5,-239 "/>
<text text-anchor="middle" x="544" y="-229.8" font-family="Times New Roman,serif" font-size="14.00">Facilitator 1 Bucket</text>
<text text-anchor="start" x="447.5" y="-214.8" font-family="Times New Roman,serif" font-size="14.00">{date}&#45;{date}.sum_1</text>
<text text-anchor="start" x="447.5" y="-199.8" font-family="Times New Roman,serif" font-size="14.00">{date}&#45;{date}.invalid_uuid_1.avro</text>
<text text-anchor="start" x="447.5" y="-184.8" font-family="Times New Roman,serif" font-size="14.00">{date}&#45;{date}.sum_1.sig</text>
</g>
<!-- Reducer_1&#45;&gt;sum_1_aggr -->
<g id="edge12" class="edge"><title>Reducer_1&#45;&gt;sum_1_aggr</title>
<path fill="none" stroke="black" d="M507.045,-291.658C511.846,-281.31 518.17,-267.679 524.226,-254.624"/>
<polygon fill="black" stroke="black" points="527.529,-255.82 528.563,-245.276 521.179,-252.874 527.529,-255.82"/>
</g>
<!-- batch_1&#45;&gt;MapA_1 -->
<g id="edge3" class="edge"><title>batch_1&#45;&gt;MapA_1</title>
<path fill="none" stroke="black" d="M450.716,-700.996C436.214,-690.427 420.542,-679.005 407.474,-669.481"/>
<polygon fill="black" stroke="black" points="409.443,-666.586 399.301,-663.524 405.321,-672.243 409.443,-666.586"/>
</g>
<!-- batch_1_local&#45;&gt;MapB_1 -->
<g id="edge7" class="edge"><title>batch_1_local&#45;&gt;MapB_1</title>
<path fill="none" stroke="black" d="M198.193,-527.576C201.159,-526.692 204.1,-525.831 207,-525 258.014,-510.378 316.493,-496.244 359.881,-486.255"/>
<polygon fill="black" stroke="black" points="360.769,-489.642 369.735,-483.998 359.205,-482.819 360.769,-489.642"/>
</g>
<!-- validity_1_local&#45;&gt;MapB_1 -->
<g id="edge8" class="edge"><title>validity_1_local&#45;&gt;MapB_1</title>
<path fill="none" stroke="black" d="M359.295,-524.996C371.581,-514.933 384.811,-504.097 396.087,-494.862"/>
<polygon fill="black" stroke="black" points="398.392,-497.499 403.91,-488.455 393.956,-492.083 398.392,-497.499"/>
</g>
<!-- validity_0 -->
<g id="node8" class="node"><title>validity_0</title>
<polygon fill="#fcdae1" stroke="#ee4266" points="640,-593 440,-593 440,-525 646,-525 646,-587 640,-593"/>
<polyline fill="none" stroke="#ee4266" points="640,-593 640,-587 "/>
<polyline fill="none" stroke="#ee4266" points="646,-587 640,-587 "/>
<text text-anchor="middle" x="543" y="-577.8" font-family="Times New Roman,serif" font-size="14.00">PHA 0 Bucket (copy)</text>
<text text-anchor="start" x="448" y="-562.8" font-family="Times New Roman,serif" font-size="14.00">{date}/{batch_id}.validity_0</text>
<text text-anchor="start" x="448" y="-547.8" font-family="Times New Roman,serif" font-size="14.00">{date}/{batch_id}.validity_0.avro</text>
<text text-anchor="start" x="448" y="-532.8" font-family="Times New Roman,serif" font-size="14.00">{date}/{batch_id}.validity_0.sig</text>
</g>
<!-- validity_0&#45;&gt;MapB_1 -->
<g id="edge9" class="edge"><title>validity_0&#45;&gt;MapB_1</title>
<path fill="none" stroke="black" d="M497.332,-524.996C483.137,-514.738 467.831,-503.676 454.893,-494.326"/>
<polygon fill="black" stroke="black" points="456.924,-491.475 446.768,-488.455 452.823,-497.149 456.924,-491.475"/>
</g>
<!-- sum_1&#45;&gt;Reducer_1 -->
<g id="edge11" class="edge"><title>sum_1&#45;&gt;Reducer_1</title>
<path fill="none" stroke="black" d="M483.531,-363.796C485.953,-355.531 488.642,-346.352 491.09,-337.997"/>
<polygon fill="black" stroke="black" points="494.469,-338.911 493.922,-328.33 487.752,-336.943 494.469,-338.911"/>
</g>
<!-- MapA_0 -->
<g id="node10" class="node"><title>MapA_0</title>
<ellipse fill="#fff6d8" stroke="#ffd23f" stroke-width="3" cx="929" cy="-647" rx="51.9908" ry="18"/>
<text text-anchor="middle" x="929" y="-643.3" font-family="Times New Roman,serif" font-size="14.00">Intake Map</text>
</g>
<!-- MapA_0&#45;&gt;validity_0 -->
<g id="edge14" class="edge"><title>MapA_0&#45;&gt;validity_0</title>
<path fill="none" stroke="black" d="M883.188,-638.285C829.091,-628.888 736.534,-611.91 658,-593 657.262,-592.822 656.521,-592.643 655.778,-592.462"/>
<polygon fill="black" stroke="black" points="656.567,-589.051 646.018,-590.027 654.873,-595.843 656.567,-589.051"/>
</g>
<!-- batch_0_local -->
<g id="node14" class="node"><title>batch_0_local</title>
<polygon fill="#fff6d8" stroke="#ffd23f" points="1070,-593 894,-593 894,-525 1076,-525 1076,-587 1070,-593"/>
<polyline fill="none" stroke="#ffd23f" points="1070,-593 1070,-587 "/>
<polyline fill="none" stroke="#ffd23f" points="1076,-587 1070,-587 "/>
<text text-anchor="middle" x="985" y="-577.8" font-family="Times New Roman,serif" font-size="14.00">Internal Bucket (copy)</text>
<text text-anchor="start" x="902" y="-562.8" font-family="Times New Roman,serif" font-size="14.00">{date}/{batch_id}.batch</text>
<text text-anchor="start" x="902" y="-547.8" font-family="Times New Roman,serif" font-size="14.00">{date}/{batch_id}.batch.avro</text>
<text text-anchor="start" x="902" y="-532.8" font-family="Times New Roman,serif" font-size="14.00">{date}/{batch_id}.batch.sig</text>
</g>
<!-- MapA_0&#45;&gt;batch_0_local -->
<g id="edge15" class="edge"><title>MapA_0&#45;&gt;batch_0_local</title>
<path fill="none" stroke="black" d="M940.064,-629.009C945.192,-621.134 951.534,-611.395 957.82,-601.74"/>
<polygon fill="black" stroke="black" points="960.775,-603.617 963.299,-593.327 954.909,-599.797 960.775,-603.617"/>
</g>
<!-- validity_0_local -->
<g id="node15" class="node"><title>validity_0_local</title>
<polygon fill="#fff6d8" stroke="#ffd23f" points="1294,-593 1094,-593 1094,-525 1300,-525 1300,-587 1294,-593"/>
<polyline fill="none" stroke="#ffd23f" points="1294,-593 1294,-587 "/>
<polyline fill="none" stroke="#ffd23f" points="1300,-587 1294,-587 "/>
<text text-anchor="middle" x="1197" y="-577.8" font-family="Times New Roman,serif" font-size="14.00">Internal Bucket</text>
<text text-anchor="start" x="1102" y="-562.8" font-family="Times New Roman,serif" font-size="14.00">{date}/{batch_id}.validity_0</text>
<text text-anchor="start" x="1102" y="-547.8" font-family="Times New Roman,serif" font-size="14.00">{date}/{batch_id}.validity_0.avro</text>
<text text-anchor="start" x="1102" y="-532.8" font-family="Times New Roman,serif" font-size="14.00">{date}/{batch_id}.validity_0.sig</text>
</g>
<!-- MapA_0&#45;&gt;validity_0_local -->
<g id="edge16" class="edge"><title>MapA_0&#45;&gt;validity_0_local</title>
<path fill="none" stroke="black" d="M965.702,-634.222C996.423,-624.364 1041.95,-609.756 1084.5,-596.101"/>
<polygon fill="black" stroke="black" points="1085.64,-599.41 1094.09,-593.022 1083.5,-592.745 1085.64,-599.41"/>
</g>
<!-- MapB_0 -->
<g id="node11" class="node"><title>MapB_0</title>
<ellipse fill="#fff6d8" stroke="#ffd23f" stroke-width="3" cx="935" cy="-471" rx="77.9862" ry="18"/>
<text text-anchor="middle" x="935" y="-467.3" font-family="Times New Roman,serif" font-size="14.00">Validate/Sum Map</text>
</g>
<!-- sum_0 -->
<g id="node17" class="node"><title>sum_0</title>
<polygon fill="#fff6d8" stroke="#ffd23f" points="946.5,-417 719.5,-417 719.5,-364 952.5,-364 952.5,-411 946.5,-417"/>
<polyline fill="none" stroke="#ffd23f" points="946.5,-417 946.5,-411 "/>
<polyline fill="none" stroke="#ffd23f" points="952.5,-411 946.5,-411 "/>
<text text-anchor="middle" x="836" y="-401.8" font-family="Times New Roman,serif" font-size="14.00">Internal Bucket</text>
<text text-anchor="start" x="727.5" y="-386.8" font-family="Times New Roman,serif" font-size="14.00">{date}/{batch_id}.sum_0</text>
<text text-anchor="start" x="727.5" y="-371.8" font-family="Times New Roman,serif" font-size="14.00">{date}/{batch_id}.invalid_uuid_0.avro</text>
</g>
<!-- MapB_0&#45;&gt;sum_0 -->
<g id="edge20" class="edge"><title>MapB_0&#45;&gt;sum_0</title>
<path fill="none" stroke="black" d="M914.005,-453.352C903.006,-444.631 889.159,-433.651 876.195,-423.372"/>
<polygon fill="black" stroke="black" points="878.281,-420.559 868.271,-417.088 873.932,-426.044 878.281,-420.559"/>
</g>
<!-- Reducer_0 -->
<g id="node12" class="node"><title>Reducer_0</title>
<ellipse fill="#fff6d8" stroke="#ffd23f" stroke-width="3" cx="794" cy="-310" rx="82.5854" ry="18"/>
<text text-anchor="middle" x="794" y="-306.3" font-family="Times New Roman,serif" font-size="14.00">Multi&#45;batch Reduce</text>
</g>
<!-- sum_0_aggr -->
<g id="node19" class="node"><title>sum_0_aggr</title>
<polygon fill="#d5f4e3" stroke="#35c073" points="869.5,-245 666.5,-245 666.5,-177 875.5,-177 875.5,-239 869.5,-245"/>
<polyline fill="none" stroke="#35c073" points="869.5,-245 869.5,-239 "/>
<polyline fill="none" stroke="#35c073" points="875.5,-239 869.5,-239 "/>
<text text-anchor="middle" x="771" y="-229.8" font-family="Times New Roman,serif" font-size="14.00">PHA 0 Bucket</text>
<text text-anchor="start" x="674.5" y="-214.8" font-family="Times New Roman,serif" font-size="14.00">{date}&#45;{date}.sum_0</text>
<text text-anchor="start" x="674.5" y="-199.8" font-family="Times New Roman,serif" font-size="14.00">{date}&#45;{date}.invalid_uuid_0.avro</text>
<text text-anchor="start" x="674.5" y="-184.8" font-family="Times New Roman,serif" font-size="14.00">{date}&#45;{date}.sum_0.sig</text>
</g>
<!-- Reducer_0&#45;&gt;sum_0_aggr -->
<g id="edge22" class="edge"><title>Reducer_0&#45;&gt;sum_0_aggr</title>
<path fill="none" stroke="black" d="M789.888,-291.658C787.482,-281.511 784.327,-268.207 781.287,-255.386"/>
<polygon fill="black" stroke="black" points="784.603,-254.199 778.89,-245.276 777.792,-255.814 784.603,-254.199"/>
</g>
<!-- batch_0&#45;&gt;MapA_0 -->
<g id="edge13" class="edge"><title>batch_0&#45;&gt;MapA_0</title>
<path fill="none" stroke="black" d="M894.491,-700.996C900.443,-691.856 906.81,-682.077 912.435,-673.44"/>
<polygon fill="black" stroke="black" points="915.454,-675.217 917.978,-664.927 909.588,-671.397 915.454,-675.217"/>
</g>
<!-- batch_0_local&#45;&gt;MapB_0 -->
<g id="edge17" class="edge"><title>batch_0_local&#45;&gt;MapB_0</title>
<path fill="none" stroke="black" d="M965.812,-524.996C960.553,-515.952 954.932,-506.283 949.949,-497.713"/>
<polygon fill="black" stroke="black" points="952.893,-495.813 944.841,-488.927 946.842,-499.331 952.893,-495.813"/>
</g>
<!-- validity_0_local&#45;&gt;MapB_0 -->
<g id="edge18" class="edge"><title>validity_0_local&#45;&gt;MapB_0</title>
<path fill="none" stroke="black" d="M1096.45,-524.996C1059.34,-512.815 1018.78,-499.5 987.594,-489.264"/>
<polygon fill="black" stroke="black" points="988.408,-485.847 977.815,-486.054 986.225,-492.498 988.408,-485.847"/>
</g>
<!-- validity_1&#45;&gt;MapB_0 -->
<g id="edge19" class="edge"><title>validity_1&#45;&gt;MapB_0</title>
<path fill="none" stroke="black" d="M835.17,-524.996C855.78,-514.055 878.111,-502.2 896.416,-492.483"/>
<polygon fill="black" stroke="black" points="898.131,-495.535 905.322,-487.755 894.848,-489.353 898.131,-495.535"/>
</g>
<!-- sum_0&#45;&gt;Reducer_0 -->
<g id="edge21" class="edge"><title>sum_0&#45;&gt;Reducer_0</title>
<path fill="none" stroke="black" d="M822.248,-363.796C817.68,-355.258 812.59,-345.746 808.004,-337.173"/>
<polygon fill="black" stroke="black" points="811.076,-335.497 803.272,-328.33 804.904,-338.799 811.076,-335.497"/>
</g>
<!-- ReducerP -->
<g id="node18" class="node"><title>ReducerP</title>
<ellipse fill="#d5f4e3" stroke="#35c073" stroke-width="3" cx="657" cy="-123" rx="61.1893" ry="18"/>
<text text-anchor="middle" x="657" y="-119.3" font-family="Times New Roman,serif" font-size="14.00">Post&#45;Reducer</text>
</g>
<!-- sum_aggr -->
<g id="node21" class="node"><title>sum_aggr</title>
<polygon fill="#d5f4e3" stroke="#35c073" points="748,-69 560,-69 560,-16 754,-16 754,-63 748,-69"/>
<polyline fill="none" stroke="#35c073" points="748,-69 748,-63 "/>
<polyline fill="none" stroke="#35c073" points="754,-63 748,-63 "/>
<text text-anchor="middle" x="657" y="-53.8" font-family="Times New Roman,serif" font-size="14.00">Results</text>
<text text-anchor="start" x="568" y="-38.8" font-family="Times New Roman,serif" font-size="14.00">{date}&#45;{date}.sum</text>
<text text-anchor="start" x="568" y="-23.8" font-family="Times New Roman,serif" font-size="14.00">{date}&#45;{date}.invalid_uuid.avro</text>
</g>
<!-- ReducerP&#45;&gt;sum_aggr -->
<g id="edge25" class="edge"><title>ReducerP&#45;&gt;sum_aggr</title>
<path fill="none" stroke="black" d="M657,-104.967C657,-97.4475 657,-88.3063 657,-79.3971"/>
<polygon fill="black" stroke="black" points="660.5,-79.1563 657,-69.1563 653.5,-79.1563 660.5,-79.1563"/>
</g>
<!-- sum_0_aggr&#45;&gt;ReducerP -->
<g id="edge23" class="edge"><title>sum_0_aggr&#45;&gt;ReducerP</title>
<path fill="none" stroke="black" d="M727.251,-176.996C713.578,-166.682 698.829,-155.555 686.391,-146.172"/>
<polygon fill="black" stroke="black" points="688.283,-143.215 678.192,-139.987 684.067,-148.804 688.283,-143.215"/>
</g>
<!-- sum_1_aggr&#45;&gt;ReducerP -->
<g id="edge24" class="edge"><title>sum_1_aggr&#45;&gt;ReducerP</title>
<path fill="none" stroke="black" d="M587.366,-176.996C600.918,-166.682 615.538,-155.555 627.866,-146.172"/>
<polygon fill="black" stroke="black" points="630.156,-148.828 635.994,-139.987 625.917,-143.258 630.156,-148.828"/>
</g>
</g>
</svg>
